<svg width="21" height="20" viewBox="0 0 21 20" fill="none" xmlns="http://www.w3.org/2000/svg">
<path d="M14.0562 17.9084H2.57516C2.29108 17.9084 2.06079 17.6782 2.06079 17.3941V2.60592C2.06079 2.32184 2.29108 2.09155 2.57516 2.09155H6.50285M14.0562 17.9084V2.09155M14.0562 17.9084H18.4249C18.7089 17.9084 18.9392 17.6782 18.9392 17.3941V2.60592C18.9392 2.32184 18.7089 2.09155 18.4249 2.09155H14.0562M14.0562 2.09155H7.75015M7.75015 2.09155H6.50285M7.75015 2.09155V6.0214C7.75015 6.30547 7.51986 6.53577 7.23578 6.53577H7.01722C6.73314 6.53577 6.50285 6.30547 6.50285 6.0214V2.09155" stroke="white" stroke-width="3.21482"/>
</svg>
