<svg width="23" height="20" viewBox="0 0 23 20" fill="none" xmlns="http://www.w3.org/2000/svg">
<path d="M11.4351 12.6267V12.6267C11.4351 13.4345 11.1051 14.2072 10.5215 14.7658L7.84816 17.3246C7.23661 17.9099 6.42275 18.2367 5.57623 18.2367H5.19811C3.59229 18.2367 2.29053 16.9349 2.29053 15.3291V15.3291C2.29053 14.5542 2.59986 13.8113 3.14985 13.2654L5.64962 10.7843C6.28134 10.1573 7.13531 9.80544 8.02538 9.80544H11.4351H15.0162C15.8427 9.80544 16.6404 9.50194 17.2579 8.95256L19.7564 6.72967C20.3626 6.19027 20.7095 5.41746 20.7095 4.60596V4.60596C20.7095 3.03604 19.4368 1.76337 17.8669 1.76337H17.4147C16.5734 1.76337 15.764 2.08517 15.1524 2.6628L12.1896 5.46104C11.708 5.91581 11.4351 6.54889 11.4351 7.21122V7.21122" stroke="white" stroke-width="3.24277"/>
</svg>
