<svg width="21" height="20" viewBox="0 0 21 20" fill="none" xmlns="http://www.w3.org/2000/svg">
<path d="M2.39935 8.22222V18.0436C2.39935 18.2957 2.60368 18.5 2.85573 18.5H7.36244C7.61449 18.5 7.81882 18.2957 7.81882 18.0436V13.4228C7.81882 13.1708 8.02314 12.9664 8.27519 12.9664H12.7249C12.9769 12.9664 13.1812 13.1708 13.1812 13.4228V18.0436C13.1812 18.2957 13.3856 18.5 13.6376 18.5H18.1443C18.3964 18.5 18.6007 18.2957 18.6007 18.0436V8.22222C18.6007 8.08385 18.5379 7.95296 18.43 7.86634L10.7857 1.72937C10.6188 1.59538 10.3812 1.59538 10.2143 1.72937L2.57002 7.86634C2.46213 7.95296 2.39935 8.08385 2.39935 8.22222Z" stroke="white" stroke-width="2.85235"/>
</svg>
