<svg width="21" height="20" viewBox="0 0 21 20" fill="none" xmlns="http://www.w3.org/2000/svg">
<path d="M18.3221 1.7038H13.3444C13.0826 1.7038 12.8703 1.91604 12.8703 2.17787V7.15559C12.8703 7.41741 13.0826 7.62966 13.3444 7.62966H18.3221C18.584 7.62966 18.7962 7.41741 18.7962 7.15559V2.17787C18.7962 1.91604 18.584 1.7038 18.3221 1.7038Z" stroke="white" stroke-width="2.96293"/>
<path d="M18.7962 17.8221V12.8444C18.7962 12.5826 18.584 12.3703 18.3221 12.3703H13.3444C13.0826 12.3703 12.8703 12.5826 12.8703 12.8444V17.8221C12.8703 18.084 13.0826 18.2962 13.3444 18.2962H18.3221C18.584 18.2962 18.7962 18.084 18.7962 17.8221Z" stroke="white" stroke-width="2.96293"/>
<path d="M2.67787 18.2962H7.65559C7.91741 18.2962 8.12966 18.084 8.12966 17.8221V12.8444C8.12966 12.5826 7.91741 12.3703 7.65559 12.3703H2.67787C2.41604 12.3703 2.2038 12.5826 2.2038 12.8444V17.8221C2.2038 18.084 2.41604 18.2962 2.67787 18.2962Z" stroke="white" stroke-width="2.96293"/>
<path d="M8.12966 4.66673C8.12966 6.30311 6.80311 7.62966 5.16673 7.62966C3.53035 7.62966 2.2038 6.30311 2.2038 4.66673C2.2038 3.03035 3.53035 1.7038 5.16673 1.7038C6.80311 1.7038 8.12966 3.03035 8.12966 4.66673Z" stroke="white" stroke-width="2.96293"/>
</svg>
