<svg width="25" height="20" viewBox="0 0 25 20" fill="none" xmlns="http://www.w3.org/2000/svg">
<path d="M16.9189 17.8852V17.8852C16.9189 13.865 13.6598 10.6059 9.6396 10.6059H8.91769C5.03607 10.6059 1.8894 13.7526 1.8894 17.6342V17.6342C1.8894 17.7728 2.00179 17.8852 2.14041 17.8852H16.9189ZM16.9189 17.8852H22.6873C22.9211 17.8852 23.1125 17.695 23.0926 17.462C22.8781 14.962 20.7808 12.9998 18.2252 12.9998H17.9091C17.5886 12.9998 17.1835 13.0165 16.9189 13.1223C16.6074 13.1828 16.3368 13.334 16.0722 13.5686M19.7365 7.92398C19.7365 7.00204 18.9891 6.24263 18.0672 6.24263C17.1452 6.24263 16.3979 7.00204 16.3979 7.92398C16.3979 8.84591 17.1452 9.60533 18.0672 9.60533C18.9891 9.60533 19.7365 8.84591 19.7365 7.92398ZM11.8914 4.62002V4.62002C11.8914 5.9937 10.7778 7.12523 9.40415 7.12523V7.12523C8.03047 7.12523 6.91688 5.9937 6.91688 4.62002V4.62002C6.91688 3.24633 8.03047 2.11481 9.40415 2.11481V2.11481C10.7778 2.11481 11.8914 3.24633 11.8914 4.62002Z" stroke="white" stroke-width="2.64604"/>
</svg>
